# xmcd CD database file
#
# Track frame offsets:
#	150
#	11643
#	24679
#	36043
#	49469
#	59140
#	69362
#	81527
#	94229
#	105412
#	117591
#	130341
#	139929
#	151189
#	161661
#	172447
#
# Disc length: 2505 seconds
#
# Revision: 0
# Processed by: cddbd v1.5.1PL0 Copyright (c) Steve Scherf et al.
# Submitted via: CDex 1.51
#
DISCID=ed09c710
DTITLE=Sergio Mihanovich - B.A. Jazz- (Bonus tracks #1-#4)
DYEAR=2000
DGENRE=Jazz
TTITLE0=Blues de ninguna hora
TTITLE1=Estoy seguro de saber
TTITLE2=Desafortunado
TTITLE3=Mauree, Maureen, te quiero
TTITLE4=Ni Amor, Ni Nada (No Love, No Nothing)
TTITLE5=Según Pasan Los Años (As Time Goes By)
TTITLE6=Amor Y Decepcion (Love And Deception)
TTITLE7=Mas De Lo Que Tu Sabes (More Than You Know
TTITLE8=Tu Me Has Desilusionado (I Got A Kick About of You)
TTITLE9=El Amor Esta Aqui Para Quedarse (Love Is here to Stay)
TTITLE10=La Calle Donde Tu Vives (On The Street Where You Live)
TTITLE11=Cartas A Mi Amada (Love Letters)
TTITLE12=Verano Indio (Indian Summer)
TTITLE13=Enamorado En Vano (In Love In Vain)
TTITLE14=Hace Tiempo Y A Lo Lejos (Long Ago And Far Away)
TTITLE15=Necesito Alguien (I'll Need Another One)
EXTD=YEAR: 2000
EXTT0=
EXTT1=
EXTT2=
EXTT3=
EXTT4=
EXTT5=
EXTT6=
EXTT7=
EXTT8=
EXTT9=
EXTT10=
EXTT11=
EXTT12=
EXTT13=
EXTT14=
EXTT15=
PLAYORDER=
